<svg version="1.1" id="a" xmlns:x="ns_extend;" xmlns:i="ns_ai;" xmlns:graph="ns_graphs;" xmlns="http://www.w3.org/2000/svg" xmlns:xlink="http://www.w3.org/1999/xlink" x="0px" y="0px" viewBox="0 0 129.4 65" style="enable-background:new 0 0 129.4 65;" xml:space="preserve">
 <style type="text/css">
  .st0{fill:#FF6600;}
 </style>
 <metadata>
  <sfw xmlns="ns_sfw;">
   <slices>
   </slices>
   <sliceSourceBounds bottomLeftOrigin="true" height="65" width="129.4" x="-57.7" y="0">
   </sliceSourceBounds>
  </sfw>
 </metadata>
 <g>
  <rect x="121.1" y="56.2" class="st0" width="8.3" height="8.3">
  </rect>
  <polygon class="st0" points="104.4,19.4 109.3,56.3 114.2,19.4 121.9,19.4 114.7,64.4 103.8,64.4 96.7,19.4 	">
  </polygon>
  <path class="st0" d="M4.2,19.4H0v6h4.2v39.1h7.5V25.3H17v-6h-5.3v-9.1c0-1.3,0.3-2.4,0.9-3.1c0.6-0.7,1.6-1,3-1H17V0h-2.7
		c-3.3,0-6.5,0.7-8,2.1s-2,3.7-2,6.9L4.2,19.4L4.2,19.4z">
  </path>
  <rect x="19.3" y="19.4" class="st0" width="7.5" height="45">
  </rect>
  <path class="st0" d="M61.4,44.4H77V30.6c0-8.3-4-11.7-11.6-11.7s-11.6,3.4-11.6,11.8v22.8C53.9,61,58.5,65,65.4,65S77,61.7,77,53.4
		v-3.6h-7.2c0,0,0,3.2,0,4.3c0,3.1-1.1,5.2-4.2,5.2c-3.1,0-4.2-2.1-4.2-5.2C61.4,54.1,61.4,44.4,61.4,44.4z M61.4,29.1
		c0-2.5,0.7-5.2,4.2-5.2c3.5,0,4.2,2.6,4.2,5.2v9.3h-8.4V29.1L61.4,29.1z">
  </path>
  <path class="st0" d="M43.6,38.8c-5.6-5-6.1-5.6-6.1-9.3c0-3.1,0.3-5,3.1-5s3.2,1.9,3.2,5.1v4.2H51v-6.8c0-5.3-4.1-8-10.6-8
		S30,21,29.9,29.5c0,1.4,0,1.4,0,0.9c0,2.7,0,6.9,6.6,12.6l1.9,1.6c4.9,4.1,5.4,4.6,5.4,9.5c0,3-0.2,5.3-3.4,5.3s-3.4-2.3-3.4-3.7
		v-5.8h-7.6v5.9c0,7.3,4.8,9.1,10.9,9.1s10.9-1.8,10.9-11.2V53C51.4,46.4,50.2,44.6,43.6,38.8L43.6,38.8z">
  </path>
  <path class="st0" d="M87,24v-4.6h-6.8v45h7.4V33c0-2.4,0.8-4,2.2-5c1.3-0.9,2.9-1.2,4.9-1.2v-8c-3.9,0.1-5.6,0.8-7.6,5L87,24L87,24
		z">
  </path>
 </g>
</svg>