<svg version="1.1" id="Layer_1" xmlns="http://www.w3.org/2000/svg" xmlns:xlink="http://www.w3.org/1999/xlink" x="0px" y="0px" viewBox="0 0 210.6 60" style="enable-background:new 0 0 210.6 60;" xml:space="preserve">
 <style type="text/css">
  .st0{fill-rule:evenodd;clip-rule:evenodd;fill:#404041;}
	.st1{fill-rule:evenodd;clip-rule:evenodd;fill:#0090BA;}
 </style>
 <g>
  <path class="st0" d="M156.3,45.7c-7.2,0-11.7-4.2-11.7-11c0-7,4.1-11.4,10.8-11.4l0.6,0c0.8,0,2,0,3.6,0.2V15h4.7v29.9
		C164.2,44.9,159.7,45.7,156.3,45.7z M156.2,27c-4.6,0-6.8,2.5-6.8,7.6c0,4.6,2.7,7.4,7,7.4c0.8,0,1.8-0.1,3.1-0.2V27.3
		C158.2,27.1,157.1,27,156.2,27z">
  </path>
  <path class="st0" d="M91.6,45L78.9,22.7l0,22.3h-4.4V16.7h6.2l12.7,22.1l0-22.1h4.5V45H91.6z">
  </path>
  <path class="st0" d="M132.2,45.4c-2.1,0-4.4-0.2-7.1-0.8l-0.3-0.1v-3.9l0.4,0.1c2.3,0.5,4.4,0.9,6.4,0.9c1.6,0,5.5-0.3,5.5-2.7
		c0-2-2.6-2.5-4.8-2.9l-0.1,0c-0.4-0.1-0.8-0.2-1.1-0.2c-3.1-0.8-6.4-2-6.4-6.2c0-4.1,3.2-6.4,8.8-6.4c2.7,0,4.6,0.3,6.2,0.5
		l0.8,0.1v3.8l-0.4-0.1c-1.8-0.3-3.9-0.7-5.9-0.7c-2.2,0-4.9,0.4-4.9,2.4c0,1.6,2.2,2.1,4.7,2.7c3.5,0.8,7.8,1.7,7.8,6.5
		C141.9,42.9,138.4,45.4,132.2,45.4z">
  </path>
  <path class="st0" d="M177.5,45.4c-4.9,0-9.4-0.9-9.4-7.1c0-6.8,7-6.8,11.2-6.8c0.4,0,2.4,0.1,3,0.1c0-3.8-0.1-4.7-5.6-4.7
		c-2.2,0-4.6,0.4-6.8,0.8l-0.4,0.1V24l0.3-0.1c2.5-0.5,4.9-0.8,7.3-0.8c5.4,0,9.9,0.5,9.9,7.2v14.5l-0.3,0
		C182.9,45.3,180,45.4,177.5,45.4z M179.1,34.9c-4,0-6.5,0.6-6.5,3.6c0,3.4,3.2,3.7,6.2,3.7c1.1,0,3.1-0.1,3.7-0.2v-7
		C181.6,34.9,179.4,34.9,179.1,34.9z">
  </path>
  <path class="st0" d="M111.2,45.4c-4.9,0-9.4-0.9-9.4-7.1c0-6.8,7-6.8,11.2-6.8c0.4,0,2.4,0.1,3,0.1c0-3.8-0.1-4.7-5.6-4.7
		c-2.2,0-4.6,0.4-6.8,0.8l-0.4,0.1V24l0.3-0.1c2.5-0.5,4.9-0.8,7.3-0.8c5.4,0,9.9,0.5,9.9,7.2v14.5l-0.3,0
		C116.7,45.3,113.8,45.4,111.2,45.4z M112.9,34.9c-4,0-6.5,0.6-6.5,3.6c0,3.4,3.2,3.7,6.2,3.7c1.1,0,3.1-0.1,3.7-0.2v-7
		C115.4,34.9,113.2,34.9,112.9,34.9z">
  </path>
  <path class="st0" d="M205.7,54.6v-9.3c-1.8,0.3-2.8,0.3-3.6,0.3c-1.9,0-3.9-0.4-5.6-1.1c-3.6-1.5-5.7-5.3-5.7-10.2
		c0-2.4,0.6-6.9,4.6-9.3c2-1.2,4.3-1.7,7.9-1.7c1.3,0,3,0.1,4.6,0.2l2.7,0.1v28.8L205.7,54.6z M202.9,27c-4.8,0-7.2,2.4-7.2,7.3
		c0,6.2,3.6,7.5,6.7,7.5c0.7,0,1.6,0,3.4-0.2V27.1C204.3,27,203.7,27,202.9,27z">
  </path>
  <path class="st1" d="M53.3,0L37.7,43c-0.4,1.1-1.4,1.8-2.5,2v0h16.5c1.3,0,2.4-0.8,2.8-2L70.1,0H53.3z M33.9,44.3
		c1,0,1.8-0.5,2.3-1.2c0.1-0.1,0.2-0.3,0.4-0.7l5.7-15.8l-3.3-9.2c-0.4-1-1.4-1.7-2.6-1.7c-1,0-1.8,0.5-2.3,1.2
		c-0.1,0.1-0.3,0.4-0.4,0.7l-5.7,15.8l3.4,9.2C31.7,43.6,32.7,44.3,33.9,44.3z M18.4,15h16.7v0c-1.2,0.1-2.3,0.9-2.7,2L16.8,60H0
		l15.6-43C16,15.9,17.1,15,18.4,15z">
  </path>
 </g>
</svg>