<svg width="163" height="46" viewBox="0 0 163 46" fill="none" xmlns="http://www.w3.org/2000/svg">
<path d="M145.475 4.82812V9.92898H150.629V11.734H145.475V24.7216C145.475 27.1151 146.387 28.1352 148.25 28.1352C149.361 28.1352 150.233 27.7821 151.224 27.0366L151.7 27.7429C150.431 29.7047 148.448 31.1173 145.594 31.1173C142.342 31.1173 139.964 29.4301 139.964 25.0355V11.734H137.505V10.8315C140.241 9.61514 142.58 7.41781 144.285 4.82812H145.475Z" fill="#575757"/>
<path d="M125.358 29.7033C128.292 29.7033 129.601 26.3681 129.601 21.228C129.601 15.4208 128.253 10.987 125.081 10.987C122.147 10.987 120.799 14.2829 120.799 19.423C120.799 25.2302 122.186 29.7033 125.358 29.7033ZM125.16 31.1158C119.094 31.1158 114.97 27.0352 114.97 20.7963C114.97 14.126 119.371 9.53516 125.279 9.53516C131.345 9.53516 135.469 13.6944 135.469 19.8939C135.469 26.5643 131.068 31.1158 125.16 31.1158Z" fill="#575757"/>
<path d="M95.5484 4.74919H93.4077V26.3691C93.4077 28.6841 94.3987 29.1549 96.5003 29.1549H97.2137C102.21 29.1549 105.699 24.7996 105.699 17.2267C105.699 10.2032 102.567 4.74919 95.5484 4.74919ZM97.3327 30.7245H84.4067V29.3511C87.1827 29.0372 87.5787 28.8018 87.5787 26.6438V7.26041C87.5787 5.10232 87.1827 4.8669 84.4067 4.553V3.17969H96.5797C107.087 3.17969 111.845 9.14377 111.845 16.4028C111.845 25.4666 105.778 30.7245 97.3327 30.7245Z" fill="#575757"/>
<path d="M73.6169 9.53516C78.9302 9.53516 81.7055 13.0273 81.7055 17.7359V18.6383H68.7796C68.6209 24.1316 71.4762 27.3882 75.3615 27.3882C78.0575 27.3882 79.8419 26.2504 81.2692 24.21L81.9038 24.5632C80.8725 28.4477 77.9782 31.1158 73.4186 31.1158C67.6695 31.1158 63.8232 26.9174 63.8232 20.8748C63.8232 14.1652 68.1852 9.53516 73.6169 9.53516ZM73.2202 10.987C70.6035 10.987 69.1762 13.5767 68.8589 17.1865H76.7889C76.7889 13.4981 75.7979 10.987 73.2202 10.987Z" fill="#1C39BB"/>
<path d="M59.0816 14.1631V26.5622C59.0816 27.8962 59.1609 28.3278 60.6676 28.4456L61.6588 28.524V29.7011L54.4426 31.1137H53.4514L53.5703 27.3469C51.905 29.1911 49.8036 31.1137 46.6713 31.1137C43.1822 31.1137 40.9221 29.1518 40.9221 24.7572V14.5555C40.9221 13.2606 40.6446 12.6328 39.0983 12.3581L38.4639 12.2405V11.0633L45.7594 9.57227H46.6317L46.4335 14.2416V24.0509C46.4335 26.4445 47.3454 27.857 49.5261 27.857C51.112 27.857 52.3016 27.19 53.5703 26.3659V14.5555C53.5703 13.2606 53.2928 12.6328 51.7464 12.3581L51.1517 12.2405V11.0633L58.3679 9.57227H59.2402L59.0816 14.1631Z" fill="#1C39BB"/>
<path d="M34.4637 0V27.7018C34.4637 29.0751 35.0981 29.3105 36.922 29.4282V30.723H26.4941V29.4282C28.3181 29.3105 28.9524 29.0751 28.9524 27.7018V3.92376L26.5735 2.70739V1.88341L33.5914 0H34.4637Z" fill="#1C39BB"/>
<path d="M11.7362 17.3837H9.00045V26.4868C9.00045 28.6056 9.91238 29.1549 12.2913 29.1549H12.6878C16.2563 29.1549 18.1594 27.1146 18.1594 23.2301C18.1594 19.7379 16.177 17.3837 11.7362 17.3837ZM10.9036 4.74919H9.00045V15.6572H10.9432C14.8289 15.6572 16.6924 13.7738 16.6924 10.0855C16.6924 6.59335 14.591 4.74919 10.9036 4.74919ZM13.4412 30.7245H0V29.3511C2.77546 29.0372 3.17196 28.8018 3.17196 26.6438V7.26041C3.17196 5.10232 2.77546 4.8669 0 4.553V3.17969H12.8068C18.9128 3.17969 22.3623 5.4947 22.3623 10.007C22.3623 13.97 18.6749 16.0103 14.9082 16.442C20.1816 16.599 23.9483 19.1101 23.9483 23.3086C23.9483 28.0563 20.3005 30.7245 13.4412 30.7245Z" fill="#1C39BB"/>
<path d="M155.249 42.5724H156.528C156.652 43.9695 157.572 44.6679 159.289 44.6679C160.034 44.6679 160.576 44.545 160.915 44.2991C161.254 44.0477 161.423 43.6733 161.423 43.1759C161.423 42.7624 161.296 42.4411 161.042 42.212C160.788 41.9773 160.39 41.8237 159.848 41.751L157.832 41.4576C157.069 41.3515 156.485 41.1028 156.078 40.7116C155.672 40.3149 155.469 39.7896 155.469 39.1358C155.469 38.3367 155.773 37.7081 156.383 37.2499C156.999 36.7916 157.852 36.5625 158.942 36.5625C160.054 36.5625 160.932 36.814 161.576 37.3169C162.22 37.8198 162.567 38.4848 162.618 39.3118H161.245C161.2 38.8201 160.986 38.415 160.602 38.0964C160.218 37.7723 159.653 37.6103 158.908 37.6103C158.202 37.6103 157.677 37.7388 157.332 37.9959C156.993 38.2473 156.824 38.5937 156.824 39.0352C156.824 39.7561 157.293 40.1808 158.23 40.3093L160.068 40.5608C161.045 40.7061 161.743 40.9854 162.16 41.3989C162.584 41.8069 162.796 42.3741 162.796 43.1005C162.796 43.9722 162.496 44.6261 161.897 45.0619C161.299 45.4978 160.418 45.7157 159.255 45.7157C158.566 45.7157 157.962 45.6375 157.443 45.481C156.929 45.3246 156.513 45.1038 156.197 44.8188C155.887 44.5282 155.653 44.1986 155.494 43.8298C155.342 43.4554 155.26 43.0362 155.249 42.5724Z" fill="#1C39BB"/>
<path d="M153.801 36.7402H154.114V38.0898H153.75C153.247 38.073 152.81 38.1317 152.437 38.2658C152.07 38.3999 151.771 38.5871 151.539 38.8274C151.308 39.0621 151.121 39.3666 150.98 39.741C150.845 40.1098 150.751 40.4954 150.701 40.8978C150.65 41.3001 150.624 41.7611 150.624 42.2808V45.4409H149.244V36.8576H150.624V39.1208C151.201 37.5338 152.259 36.7402 153.801 36.7402Z" fill="#1C39BB"/>
<path d="M142.731 45.7165C142.014 45.7165 141.373 45.5991 140.808 45.3644C140.249 45.1298 139.792 44.8057 139.436 44.3921C139.086 43.9786 138.818 43.4952 138.631 42.9421C138.451 42.3888 138.36 41.7853 138.36 41.1315C138.36 40.6174 138.417 40.134 138.53 39.6814C138.643 39.2232 138.818 38.8041 139.055 38.4241C139.292 38.0441 139.58 37.7173 139.919 37.4434C140.264 37.1696 140.673 36.9573 141.147 36.8064C141.627 36.6555 142.155 36.5801 142.731 36.5801C143.442 36.5801 144.078 36.6974 144.637 36.9321C145.196 37.1668 145.65 37.4909 146 37.9044C146.356 38.318 146.624 38.7985 146.805 39.3461C146.991 39.8938 147.085 40.4889 147.085 41.1315C147.085 41.7853 146.991 42.3888 146.805 42.9421C146.624 43.4896 146.356 43.973 146 44.3921C145.65 44.8057 145.196 45.1298 144.637 45.3644C144.078 45.5991 143.442 45.7165 142.731 45.7165ZM139.767 41.1483C139.767 42.333 140.012 43.2047 140.504 43.7635C140.994 44.3223 141.737 44.6017 142.731 44.6017C143.725 44.6017 144.464 44.3251 144.95 43.7718C145.441 43.213 145.687 42.3385 145.687 41.1483C145.687 39.9524 145.441 39.0779 144.95 38.5247C144.464 37.9715 143.725 37.6949 142.731 37.6949C141.737 37.6949 140.994 37.9715 140.504 38.5247C140.012 39.0779 139.767 39.9524 139.767 41.1483Z" fill="#1C39BB"/>
<path d="M134.921 45.439C134.119 45.439 133.569 45.2854 133.27 44.9781C132.976 44.6651 132.829 44.1482 132.829 43.4274V37.9371H131.177V37.166L132.948 36.7385L133.464 34.9531H134.21V36.8559H137.073V37.9371H134.21V44.3242H136.971V45.439H134.921Z" fill="#1C39BB"/>
<path d="M122.504 42.5724H123.783C123.907 43.9695 124.827 44.6679 126.544 44.6679C127.29 44.6679 127.831 44.545 128.17 44.2991C128.509 44.0477 128.679 43.6733 128.679 43.1759C128.679 42.7624 128.552 42.4411 128.298 42.212C128.043 41.9773 127.646 41.8237 127.103 41.751L125.087 41.4576C124.325 41.3515 123.74 41.1028 123.334 40.7116C122.927 40.3149 122.724 39.7896 122.724 39.1358C122.724 38.3367 123.029 37.7081 123.639 37.2499C124.255 36.7916 125.107 36.5625 126.197 36.5625C127.31 36.5625 128.187 36.814 128.831 37.3169C129.475 37.8198 129.822 38.4848 129.873 39.3118H128.501C128.456 38.8201 128.241 38.415 127.857 38.0964C127.473 37.7723 126.909 37.6103 126.163 37.6103C125.457 37.6103 124.932 37.7388 124.588 37.9959C124.249 38.2473 124.079 38.5937 124.079 39.0352C124.079 39.7561 124.548 40.1808 125.486 40.3093L127.323 40.5608C128.301 40.7061 128.998 40.9854 129.416 41.3989C129.839 41.8069 130.051 42.3741 130.051 43.1005C130.051 43.9722 129.752 44.6261 129.153 45.0619C128.555 45.4978 127.673 45.7157 126.51 45.7157C125.822 45.7157 125.217 45.6375 124.698 45.481C124.184 45.3246 123.769 45.1038 123.453 44.8188C123.142 44.5282 122.908 44.1986 122.749 43.8298C122.597 43.4554 122.515 43.0362 122.504 42.5724Z" fill="#1C39BB"/>
<path d="M116.771 44.6687C118.295 44.6687 119.21 44.0457 119.515 42.7995H120.777C120.744 43.079 120.673 43.35 120.566 43.6126C120.464 43.8697 120.308 44.1295 120.1 44.3921C119.891 44.6492 119.64 44.8755 119.346 45.0711C119.052 45.2611 118.68 45.4147 118.228 45.5321C117.776 45.655 117.273 45.7165 116.72 45.7165C115.992 45.7165 115.348 45.602 114.789 45.3728C114.235 45.1382 113.787 44.8113 113.442 44.3921C113.104 43.973 112.846 43.4896 112.672 42.9421C112.502 42.3944 112.417 41.7909 112.417 41.1315C112.417 40.2598 112.572 39.4886 112.883 38.8181C113.194 38.1419 113.677 37.5999 114.331 37.1919C114.992 36.784 115.788 36.5801 116.72 36.5801C117.996 36.5801 118.993 36.974 119.71 37.7619C120.433 38.5443 120.794 39.5752 120.794 40.8549C120.794 41.1175 120.783 41.3187 120.76 41.4584H113.79C113.84 42.5872 114.12 43.4059 114.628 43.9144C115.142 44.4173 115.856 44.6687 116.771 44.6687ZM116.737 37.6278C115.879 37.6278 115.201 37.8513 114.704 38.2984C114.213 38.7398 113.919 39.4495 113.823 40.4274H119.448C119.413 39.4663 119.162 38.7594 118.694 38.3068C118.225 37.8542 117.573 37.6278 116.737 37.6278Z" fill="#1C39BB"/>
<path d="M109.995 36.8555H111.368L107.954 45.4387H106.116L102.694 36.8555H104.151L107.064 44.2401L109.995 36.8555Z" fill="#1C39BB"/>
<path d="M98.0951 36.5801C99.1624 36.5801 99.9421 36.8623 100.433 37.4267C100.93 37.9911 101.179 38.8376 101.179 39.9664V45.4399H99.7896V40.1173C99.7896 39.2456 99.6117 38.6309 99.256 38.2732C98.9058 37.91 98.392 37.7284 97.714 37.7284C96.7484 37.7284 96.0146 38.1 95.5119 38.8432C95.0093 39.5865 94.7583 40.6928 94.7583 42.1625V45.4399H93.3774V36.8567H94.7583V39.1031C95.0347 38.2984 95.45 37.6781 96.0034 37.2422C96.5624 36.8008 97.2597 36.5801 98.0951 36.5801Z" fill="#1C39BB"/>
<path d="M90.9206 35.1679H88.4725V44.2875H90.9206V45.4359H84.6021V44.2875H87.0495V35.1679H84.6021V34.0195H90.9206V35.1679Z" fill="#1C39BB"/>
<path d="M162.741 26.9546C162.741 29.0449 161.029 30.7393 158.916 30.7393C156.804 30.7393 155.092 29.0449 155.092 26.9546C155.092 24.8644 156.804 23.1699 158.916 23.1699C161.029 23.1699 162.741 24.8644 162.741 26.9546Z" fill="#1C39BB"/>
</svg>
