<svg width="148" height="75" viewBox="0 0 148 75" fill="none" xmlns="http://www.w3.org/2000/svg">
<path opacity="0.7" d="M19.46 38.9199C30.2075 38.9199 38.92 30.2074 38.92 19.46C38.92 8.7125 30.2075 0 19.46 0C8.71256 0 0 8.7125 0 19.46C0 30.2074 8.71256 38.9199 19.46 38.9199Z" fill="#CFCFCF"/>
<path opacity="0.7" d="M19.46 93.8497C30.2075 93.8497 38.92 85.1372 38.92 74.3898C38.92 63.6423 30.2075 54.9297 19.46 54.9297C8.71256 54.9297 0 63.6423 0 74.3898C0 85.1372 8.71256 93.8497 19.46 93.8497Z" fill="#CFCFCF"/>
<path opacity="0.2" d="M128.14 38.9199C138.887 38.9199 147.6 30.2074 147.6 19.46C147.6 8.7125 138.887 0 128.14 0C117.392 0 108.68 8.7125 108.68 19.46C108.68 30.2074 117.392 38.9199 128.14 38.9199Z" fill="#CFCFCF"/>
<path opacity="0.2" d="M128.14 93.8497C138.887 93.8497 147.6 85.1372 147.6 74.3898C147.6 63.6423 138.887 54.9297 128.14 54.9297C117.392 54.9297 108.68 63.6423 108.68 74.3898C108.68 85.1372 117.392 93.8497 128.14 93.8497Z" fill="#CFCFCF"/>
<path opacity="0.2" d="M74.76 93.8497C85.5075 93.8497 94.22 85.1372 94.22 74.3898C94.22 63.6423 85.5075 54.9297 74.76 54.9297C64.0126 54.9297 55.3 63.6423 55.3 74.3898C55.3 85.1372 64.0126 93.8497 74.76 93.8497Z" fill="#CFCFCF"/>
</svg>
