<svg width="162" height="65" viewBox="0 0 162 65" fill="none" xmlns="http://www.w3.org/2000/svg">
<g opacity="0.4">
<path opacity="0.2" d="M84.0244 24C90.6518 24 96.0244 18.6274 96.0244 12C96.0244 5.37256 90.6518 0 84.0244 0C77.397 0 72.0244 5.37256 72.0244 12C72.0244 18.6274 77.397 24 84.0244 24Z" fill="#9F9F9F"/>
<path opacity="0.1" d="M47.2538 24C53.8812 24 59.2538 18.6274 59.2538 12C59.2538 5.37256 53.8812 0 47.2538 0C40.6264 0 35.2538 5.37256 35.2538 12C35.2538 18.6274 40.6264 24 47.2538 24Z" fill="#9F9F9F"/>
<path opacity="0.7" d="M117.175 24C123.802 24 129.175 18.6274 129.175 12C129.175 5.37256 123.802 0 117.175 0C110.547 0 105.175 5.37256 105.175 12C105.175 18.6274 110.547 24 117.175 24Z" fill="#1C39BB"/>
<path opacity="0.1" d="M84.0244 64C90.6518 64 96.0244 58.6274 96.0244 52C96.0244 45.3726 90.6518 40 84.0244 40C77.397 40 72.0244 45.3726 72.0244 52C72.0244 58.6274 77.397 64 84.0244 64Z" fill="#9F9F9F"/>
<path opacity="0.7" d="M117.175 64C123.802 64 129.175 58.6274 129.175 52C129.175 45.3726 123.802 40 117.175 40C110.547 40 105.175 45.3726 105.175 52C105.175 58.6274 110.547 64 117.175 64Z" fill="#1C39BB"/>
<path opacity="0.5" d="M149.94 64C156.567 64 161.94 58.6274 161.94 52C161.94 45.3726 156.567 40 149.94 40C143.313 40 137.94 45.3726 137.94 52C137.94 58.6274 143.313 64 149.94 64Z" fill="#1C39BB"/>
<path opacity="0.7" d="M12 24C18.6274 24 24 18.6274 24 12C24 5.37256 18.6274 0 12 0C5.37263 0 0 5.37256 0 12C0 18.6274 5.37263 24 12 24Z" fill="#1C39BB"/>
</g>
</svg>
