<svg width="102" height="453" viewBox="0 -20 102 453" fill="none" xmlns="http://www.w3.org/2000/svg">
<path opacity="0.2" d="M19.46 18.92C30.2074 18.92 38.92 10.2075 38.92 -0.540001C38.92 -11.2875 30.2074 -20 19.46 -20C8.7125 -20 0 -11.2875 0 -0.540001C0 10.2075 8.7125 18.92 19.46 18.92Z" fill="#CFCFCF"/>
<path opacity="0.2" d="M19.46 87.8497C30.2074 87.8497 38.92 79.1371 38.92 68.3897C38.92 57.6422 30.2074 48.9297 19.46 48.9297C8.7125 48.9297 0 57.6422 0 68.3897C0 79.1371 8.7125 87.8497 19.46 87.8497Z" fill="#CFCFCF"/>
<path opacity="0.2" d="M19.46 156.77C30.2074 156.77 38.92 148.057 38.92 137.31C38.92 126.562 30.2074 117.85 19.46 117.85C8.7125 117.85 0 126.562 0 137.31C0 148.057 8.7125 156.77 19.46 156.77Z" fill="#CFCFCF"/>
<path opacity="0.2" d="M19.46 225.699C30.2074 225.699 38.92 216.987 38.92 206.239C38.92 195.492 30.2074 186.779 19.46 186.779C8.7125 186.779 0 195.492 0 206.239C0 216.987 8.7125 225.699 19.46 225.699Z" fill="#CFCFCF"/>
<path opacity="0.2" d="M19.46 294.619C30.2074 294.619 38.92 285.907 38.92 275.159C38.92 264.412 30.2074 255.699 19.46 255.699C8.7125 255.699 0 264.412 0 275.159C0 285.907 8.7125 294.619 19.46 294.619Z" fill="#CFCFCF"/>
<path opacity="0.7" d="M19.46 363.551C30.2074 363.551 38.92 354.838 38.92 344.091C38.92 333.343 30.2074 324.631 19.46 324.631C8.7125 324.631 0 333.343 0 344.091C0 354.838 8.7125 363.551 19.46 363.551Z" fill="#CFCFCF"/>
<path opacity="0.05" d="M19.46 432.471C30.2074 432.471 38.92 423.758 38.92 413.011C38.92 402.263 30.2074 393.551 19.46 393.551C8.7125 393.551 0 402.263 0 413.011C0 423.758 8.7125 432.471 19.46 432.471Z" fill="#CFCFCF"/>
<path opacity="0.7" d="M82.0699 294.619C92.8174 294.619 101.53 285.907 101.53 275.159C101.53 264.412 92.8174 255.699 82.0699 255.699C71.3225 255.699 62.61 264.412 62.61 275.159C62.61 285.907 71.3225 294.619 82.0699 294.619Z" fill="#CFCFCF"/>
<path opacity="0.7" d="M82.0699 363.551C92.8174 363.551 101.53 354.838 101.53 344.091C101.53 333.343 92.8174 324.631 82.0699 324.631C71.3225 324.631 62.61 333.343 62.61 344.091C62.61 354.838 71.3225 363.551 82.0699 363.551Z" fill="#CFCFCF"/>
<path opacity="0.7" d="M82.0699 432.471C92.8174 432.471 101.53 423.758 101.53 413.011C101.53 402.263 92.8174 393.551 82.0699 393.551C71.3225 393.551 62.61 402.263 62.61 413.011C62.61 423.758 71.3225 432.471 82.0699 432.471Z" fill="#CFCFCF"/>
</svg>
