<svg width="281" height="380" viewBox="0 0 281 380" fill="none" xmlns="http://www.w3.org/2000/svg">
<path opacity="0.2" d="M143.02 107.84C153.768 107.84 162.48 99.1273 162.48 88.3799C162.48 77.6324 153.768 68.9199 143.02 68.9199C132.273 68.9199 123.56 77.6324 123.56 88.3799C123.56 99.1273 132.273 107.84 143.02 107.84Z" fill="#CFCFCF"/>
<path opacity="0.2" d="M143.02 176.77C153.768 176.77 162.48 168.057 162.48 157.31C162.48 146.562 153.768 137.85 143.02 137.85C132.273 137.85 123.56 146.562 123.56 157.31C123.56 168.057 132.273 176.77 143.02 176.77Z" fill="#CFCFCF"/>
<path opacity="0.2" d="M143.02 241.69C153.768 241.69 162.48 232.977 162.48 222.23C162.48 211.482 153.768 202.77 143.02 202.77C132.273 202.77 123.56 211.482 123.56 222.23C123.56 232.977 132.273 241.69 143.02 241.69Z" fill="#CFCFCF"/>
<path opacity="0.7" d="M143.02 310.62C153.768 310.62 162.48 301.908 162.48 291.16C162.48 280.413 153.768 271.7 143.02 271.7C132.273 271.7 123.56 280.413 123.56 291.16C123.56 301.908 132.273 310.62 143.02 310.62Z" fill="#CFCFCF"/>
<path opacity="0.7" d="M143.02 379.54C153.768 379.54 162.48 370.828 162.48 360.08C162.48 349.333 153.768 340.62 143.02 340.62C132.273 340.62 123.56 349.333 123.56 360.08C123.56 370.828 132.273 379.54 143.02 379.54Z" fill="#CFCFCF"/>
<path opacity="0.2" d="M80.95 38.92C91.6975 38.92 100.41 30.2075 100.41 19.46C100.41 8.71253 91.6975 0 80.95 0C70.2026 0 61.49 8.71253 61.49 19.46C61.49 30.2075 70.2026 38.92 80.95 38.92Z" fill="#CFCFCF"/>
<path opacity="0.2" d="M80.95 107.84C91.6975 107.84 100.41 99.1273 100.41 88.3799C100.41 77.6324 91.6975 68.9199 80.95 68.9199C70.2026 68.9199 61.49 77.6324 61.49 88.3799C61.49 99.1273 70.2026 107.84 80.95 107.84Z" fill="#CFCFCF"/>
<path opacity="0.2" d="M80.95 176.77C91.6975 176.77 100.41 168.057 100.41 157.31C100.41 146.562 91.6975 137.85 80.95 137.85C70.2026 137.85 61.49 146.562 61.49 157.31C61.49 168.057 70.2026 176.77 80.95 176.77Z" fill="#CFCFCF"/>
<path opacity="0.7" d="M261.03 176.77C271.778 176.77 280.49 168.057 280.49 157.31C280.49 146.562 271.778 137.85 261.03 137.85C250.283 137.85 241.57 146.562 241.57 157.31C241.57 168.057 250.283 176.77 261.03 176.77Z" fill="#CFCFCF"/>
<path opacity="0.7" d="M198.97 176.77C209.717 176.77 218.43 168.057 218.43 157.31C218.43 146.562 209.717 137.85 198.97 137.85C188.223 137.85 179.51 146.562 179.51 157.31C179.51 168.057 188.223 176.77 198.97 176.77Z" fill="#CFCFCF"/>
<path opacity="0.7" d="M19.46 176.77C30.2075 176.77 38.92 168.057 38.92 157.31C38.92 146.562 30.2075 137.85 19.46 137.85C8.71256 137.85 0 146.562 0 157.31C0 168.057 8.71256 176.77 19.46 176.77Z" fill="#CFCFCF"/>
</svg>
