<svg width="75" height="50" viewBox="0 0 75 50" fill="none" xmlns="http://www.w3.org/2000/svg">
<g clip-path="url(#clip0_384_133)">
<path d="M25.0003 25C25.0003 15.7468 30.0277 7.66786 37.5 3.34571C33.8227 1.21787 29.554 0 25.0003 0C11.1932 0 0 11.1931 0 25C0 38.8069 11.1932 50 25.0003 50C29.554 50 33.8234 48.7821 37.5 46.6543C30.0277 42.3314 25.0003 34.2532 25.0003 25Z" fill="white"/>
<path d="M50.0007 0C45.447 0 41.1783 1.21787 37.501 3.34571C44.9733 7.66862 50.0007 15.7468 50.0007 25C50.0007 34.2532 44.9733 42.3321 37.501 46.6543C41.1783 48.7814 45.447 50 50.0007 50C63.8077 50 75.001 38.8069 75.001 25C75.001 11.1931 63.8077 0 50.0007 0Z" fill="#9F9F9F"/>
</g>
<defs>
<clipPath id="clip0_384_133">
<rect width="75" height="50" fill="white"/>
</clipPath>
</defs>
</svg>
