<svg width="272" height="104" viewBox="0 0 272 104" fill="none" xmlns="http://www.w3.org/2000/svg">
<path opacity="0.2" d="M141.02 38.92C151.767 38.92 160.48 30.2074 160.48 19.46C160.48 8.7125 151.767 0 141.02 0C130.273 0 121.56 8.7125 121.56 19.46C121.56 30.2074 130.273 38.92 141.02 38.92Z" fill="#CFCFCF"/>
<path opacity="0.2" d="M78.9601 38.92C89.7075 38.92 98.42 30.2074 98.42 19.46C98.42 8.7125 89.7075 0 78.9601 0C68.2126 0 59.5 8.7125 59.5 19.46C59.5 30.2074 68.2126 38.92 78.9601 38.92Z" fill="#CFCFCF"/>
<path opacity="0.7" d="M196.97 38.92C207.718 38.92 216.43 30.2074 216.43 19.46C216.43 8.7125 207.718 0 196.97 0C186.223 0 177.51 8.7125 177.51 19.46C177.51 30.2074 186.223 38.92 196.97 38.92Z" fill="#CFCFCF"/>
<path opacity="0.2" d="M141.02 103.84C151.767 103.84 160.48 95.1274 160.48 84.3799C160.48 73.6325 151.767 64.9199 141.02 64.9199C130.273 64.9199 121.56 73.6325 121.56 84.3799C121.56 95.1274 130.273 103.84 141.02 103.84Z" fill="#CFCFCF"/>
<path opacity="0.7" d="M196.97 103.84C207.718 103.84 216.43 95.1274 216.43 84.3799C216.43 73.6325 207.718 64.9199 196.97 64.9199C186.223 64.9199 177.51 73.6325 177.51 84.3799C177.51 95.1274 186.223 103.84 196.97 103.84Z" fill="#CFCFCF"/>
<path opacity="0.7" d="M252.27 103.84C263.017 103.84 271.73 95.1274 271.73 84.3799C271.73 73.6325 263.017 64.9199 252.27 64.9199C241.523 64.9199 232.81 73.6325 232.81 84.3799C232.81 95.1274 241.523 103.84 252.27 103.84Z" fill="#CFCFCF"/>
<path opacity="0.7" d="M19.4601 38.92C30.2075 38.92 38.92 30.2074 38.92 19.46C38.92 8.7125 30.2075 0 19.4601 0C8.71262 0 0 8.7125 0 19.46C0 30.2074 8.71262 38.92 19.4601 38.92Z" fill="#CFCFCF"/>
</svg>
