<svg width="67" height="172" viewBox="0 0 67 172" fill="none" xmlns="http://www.w3.org/2000/svg">
<g opacity="0.4">
<path opacity="0.2" d="M41.8878 89.0206C41.8878 95.805 47.5094 101.305 54.4439 101.305C61.3784 101.305 66.9999 95.805 66.9999 89.0206C66.9999 82.2362 61.3784 76.7363 54.4439 76.7363C47.5094 76.7363 41.8878 82.2362 41.8878 89.0206Z" fill="#9F9F9F"/>
<path opacity="0.1" d="M41.8878 49.8449C41.8878 56.6293 47.5094 62.1292 54.4439 62.1292C61.3784 62.1292 66.9999 56.6293 66.9999 49.8449C66.9999 43.0605 61.3784 37.5605 54.4439 37.5605C47.5094 37.5605 41.8878 43.0605 41.8878 49.8449Z" fill="#9F9F9F"/>
<path opacity="0.7" d="M41.8878 124.339C41.8878 131.123 47.5094 136.623 54.4439 136.623C61.3784 136.623 66.9999 131.123 66.9999 124.339C66.9999 117.555 61.3784 112.055 54.4439 112.055C47.5094 112.055 41.8878 117.555 41.8878 124.339Z" fill="#1C39BB"/>
<path opacity="0.1" d="M1.90735e-06 89.0206C1.90735e-06 95.805 5.62152 101.305 12.556 101.305C19.4906 101.305 25.1121 95.805 25.1121 89.0206C25.1121 82.2362 19.4906 76.7363 12.556 76.7363C5.62152 76.7363 1.90735e-06 82.2362 1.90735e-06 89.0206Z" fill="#9F9F9F"/>
<path opacity="0.7" d="M1.90735e-06 124.339C1.90735e-06 131.123 5.62152 136.623 12.556 136.623C19.4906 136.623 25.1121 131.123 25.1121 124.339C25.1121 117.555 19.4906 112.055 12.556 112.055C5.62152 112.055 1.90735e-06 117.555 1.90735e-06 124.339Z" fill="#1C39BB"/>
<path opacity="0.5" d="M1.90735e-06 159.247C1.90735e-06 166.032 5.62152 171.531 12.556 171.531C19.4906 171.531 25.1121 166.032 25.1121 159.247C25.1121 152.463 19.4906 146.963 12.556 146.963C5.62152 146.963 1.90735e-06 152.463 1.90735e-06 159.247Z" fill="#1C39BB"/>
<path opacity="0.7" d="M41.8879 12.2844C41.8879 19.0688 47.5095 24.5686 54.444 24.5686C61.3785 24.5686 67 19.0688 67 12.2844C67 5.49992 61.3785 0 54.444 0C47.5095 0 41.8879 5.49992 41.8879 12.2844Z" fill="#1C39BB"/>
</g>
</svg>
